<svg version="1" xmlns="http://www.w3.org/2000/svg" width="166.667" height="166.667" viewBox="0 0 125.000000 125.000000"><path d="M58.2 3.7c-3.3.7-5.6 2-20.5 11.7-12.2 8-13.8 9.4-16.1 14-3.1 6.1-3.4 12.3-.7 18.1 1.7 3.9 1.7 4.1 0 8-2.4 5.3-2.4 12.6.1 17.4 1.9 3.9 1.9 3.9 0 7.9-1.1 2.3-2 6-2 8.4 0 4.5 2.9 11.9 5.8 15.1 2.7 3 8.9 5.8 14.2 6.4 3.7.4 5.1 1.1 6.1 2.9 3.1 5.8 12.1 9.9 19.9 9.2 5.2-.5 29.2-12.8 34.4-17.6 6.3-5.9 8.3-15.4 5.2-24.4-1.5-4.4-1.5-5-.1-7.8 2.1-4.1 2.1-11.3.1-17.1-1.5-4.2-1.5-5 0-8.4 5.5-13.3-4.4-29.5-18-29.5-2.6 0-3.6-.5-4.1-2-1-3.2-5.5-7.9-9.4-9.9-3.9-2-11.2-3.2-14.9-2.4z"/></svg>